<?xml version="1.0" encoding="UTF-8"?>
<svg xmlns="http://www.w3.org/2000/svg" xmlns:xlink="http://www.w3.org/1999/xlink" width="16px" height="16px" viewBox="0 0 16 16" version="1.1">
<g id="surface1">
<path style=" stroke:none;fill-rule:nonzero;fill:rgb(95.686275%,74.509805%,41.568628%);fill-opacity:1;" d="M 7.25 0.75 C 7.496094 0.75 7.746094 0.75 8 0.75 C 8 0.976562 8 1.203125 8 1.4375 C 8.246094 1.4375 8.496094 1.4375 8.75 1.4375 C 8.75 1.683594 8.75 1.933594 8.75 2.1875 C 8.976562 2.1875 9.203125 2.1875 9.4375 2.1875 C 9.4375 2.433594 9.4375 2.683594 9.4375 2.9375 C 9.683594 2.9375 9.933594 2.9375 10.1875 2.9375 C 10.1875 3.410156 10.1875 3.886719 10.1875 4.375 C 9.714844 4.375 9.238281 4.375 8.75 4.375 C 8.75 4.847656 8.75 5.324219 8.75 5.8125 C 9.472656 5.8125 10.195312 5.8125 10.9375 5.8125 C 10.9375 5.566406 10.9375 5.316406 10.9375 5.0625 C 11.164062 5.0625 11.390625 5.0625 11.625 5.0625 C 11.625 5.308594 11.625 5.558594 11.625 5.8125 C 12.097656 5.8125 12.574219 5.8125 13.0625 5.8125 C 13.0625 6.058594 13.0625 6.308594 13.0625 6.5625 C 13.308594 6.5625 13.558594 6.5625 13.8125 6.5625 C 13.8125 7.035156 13.8125 7.511719 13.8125 8 C 14.058594 8 14.308594 8 14.5625 8 C 14.5625 9.195312 14.5625 10.390625 14.5625 11.625 C 14.316406 11.625 14.066406 11.625 13.8125 11.625 C 13.8125 12.347656 13.8125 13.070312 13.8125 13.8125 C 13.566406 13.8125 13.316406 13.8125 13.0625 13.8125 C 13.0625 14.285156 13.0625 14.761719 13.0625 15.25 C 11.867188 15.25 10.671875 15.25 9.4375 15.25 C 9.4375 15.023438 9.4375 14.796875 9.4375 14.5625 C 8.964844 14.5625 8.488281 14.5625 8 14.5625 C 8 14.789062 8 15.015625 8 15.25 C 7.753906 15.25 7.503906 15.25 7.25 15.25 C 7.25 15.023438 7.25 14.796875 7.25 14.5625 C 7.023438 14.5625 6.796875 14.5625 6.5625 14.5625 C 6.5625 14.789062 6.5625 15.015625 6.5625 15.25 C 5.367188 15.25 4.171875 15.25 2.9375 15.25 C 2.9375 14.777344 2.9375 14.300781 2.9375 13.8125 C 2.691406 13.8125 2.441406 13.8125 2.1875 13.8125 C 2.1875 13.089844 2.1875 12.367188 2.1875 11.625 C 1.941406 11.625 1.691406 11.625 1.4375 11.625 C 1.4375 10.179688 1.4375 8.738281 1.4375 7.25 C 1.683594 7.25 1.933594 7.25 2.1875 7.25 C 2.1875 6.777344 2.1875 6.300781 2.1875 5.8125 C 2.910156 5.8125 3.632812 5.8125 4.375 5.8125 C 4.375 5.566406 4.375 5.316406 4.375 5.0625 C 4.601562 5.0625 4.828125 5.0625 5.0625 5.0625 C 5.0625 5.308594 5.0625 5.558594 5.0625 5.8125 C 5.558594 5.8125 6.050781 5.8125 6.5625 5.8125 C 6.5625 5.566406 6.5625 5.316406 6.5625 5.0625 C 6.789062 5.0625 7.015625 5.0625 7.25 5.0625 C 7.25 4.835938 7.25 4.609375 7.25 4.375 C 7.023438 4.375 6.796875 4.375 6.5625 4.375 C 6.5625 4.128906 6.5625 3.878906 6.5625 3.625 C 6.316406 3.625 6.066406 3.625 5.8125 3.625 C 5.8125 3.152344 5.8125 2.675781 5.8125 2.1875 C 6.058594 2.1875 6.308594 2.1875 6.5625 2.1875 C 6.5625 1.941406 6.5625 1.691406 6.5625 1.4375 C 6.789062 1.4375 7.015625 1.4375 7.25 1.4375 C 7.25 1.210938 7.25 0.984375 7.25 0.75 Z M 6.5625 2.1875 C 6.5625 2.433594 6.5625 2.683594 6.5625 2.9375 C 6.789062 2.9375 7.015625 2.9375 7.25 2.9375 C 7.25 2.691406 7.25 2.441406 7.25 2.1875 C 7.023438 2.1875 6.796875 2.1875 6.5625 2.1875 Z M 4.375 6.5625 C 4.375 6.789062 4.375 7.015625 4.375 7.25 C 5.097656 7.25 5.820312 7.25 6.5625 7.25 C 6.5625 7.023438 6.5625 6.796875 6.5625 6.5625 C 5.839844 6.5625 5.117188 6.5625 4.375 6.5625 Z M 10.9375 6.5625 C 10.9375 6.789062 10.9375 7.015625 10.9375 7.25 C 11.410156 7.25 11.886719 7.25 12.375 7.25 C 12.375 7.023438 12.375 6.796875 12.375 6.5625 C 11.902344 6.5625 11.425781 6.5625 10.9375 6.5625 Z M 10.9375 6.5625 "/>
<path style=" stroke:none;fill-rule:nonzero;fill:rgb(71.372551%,18.82353%,19.215687%);fill-opacity:1;" d="M 2.9375 7.25 C 4.359375 7.25 5.785156 7.25 7.25 7.25 C 7.25 8.46875 7.25 9.683594 7.25 10.9375 C 7.023438 10.9375 6.796875 10.9375 6.5625 10.9375 C 6.5625 11.164062 6.5625 11.390625 6.5625 11.625 C 5.367188 11.625 4.171875 11.625 2.9375 11.625 C 2.9375 10.179688 2.9375 8.738281 2.9375 7.25 Z M 2.9375 7.25 "/>
<path style=" stroke:none;fill-rule:nonzero;fill:rgb(70.980394%,18.82353%,19.607843%);fill-opacity:1;" d="M 8.75 7.25 C 10.171875 7.25 11.597656 7.25 13.0625 7.25 C 13.0625 8.695312 13.0625 10.136719 13.0625 11.625 C 12.113281 11.625 11.164062 11.625 10.1875 11.625 C 10.1875 11.398438 10.1875 11.171875 10.1875 10.9375 C 9.714844 10.9375 9.238281 10.9375 8.75 10.9375 C 8.75 9.71875 8.75 8.503906 8.75 7.25 Z M 8.75 7.25 "/>
<path style=" stroke:none;fill-rule:nonzero;fill:rgb(94.117647%,74.901962%,41.960785%);fill-opacity:1;" d="M 4.375 5.0625 C 4.601562 5.0625 4.828125 5.0625 5.0625 5.0625 C 5.0625 5.308594 5.0625 5.558594 5.0625 5.8125 C 5.558594 5.8125 6.050781 5.8125 6.5625 5.8125 C 6.5625 5.566406 6.5625 5.316406 6.5625 5.0625 C 6.789062 5.0625 7.015625 5.0625 7.25 5.0625 C 7.25 5.558594 7.25 6.050781 7.25 6.5625 C 6.300781 6.5625 5.351562 6.5625 4.375 6.5625 C 4.375 6.789062 4.375 7.015625 4.375 7.25 C 3.652344 7.25 2.929688 7.25 2.1875 7.25 C 2.1875 6.777344 2.1875 6.300781 2.1875 5.8125 C 2.910156 5.8125 3.632812 5.8125 4.375 5.8125 C 4.375 5.566406 4.375 5.316406 4.375 5.0625 Z M 4.375 5.0625 "/>
<path style=" stroke:none;fill-rule:nonzero;fill:rgb(50.196081%,11.764706%,12.54902%);fill-opacity:1;" d="M 2.9375 7.25 C 3.410156 7.25 3.886719 7.25 4.375 7.25 C 4.375 7.496094 4.375 7.746094 4.375 8 C 4.128906 8 3.878906 8 3.625 8 C 3.625 9.195312 3.625 10.390625 3.625 11.625 C 3.398438 11.625 3.171875 11.625 2.9375 11.625 C 2.9375 10.179688 2.9375 8.738281 2.9375 7.25 Z M 2.9375 7.25 "/>
<path style=" stroke:none;fill-rule:nonzero;fill:rgb(50.588238%,11.764706%,12.156863%);fill-opacity:1;" d="M 8.75 7.25 C 8.976562 7.25 9.203125 7.25 9.4375 7.25 C 9.4375 8.46875 9.4375 9.683594 9.4375 10.9375 C 9.210938 10.9375 8.984375 10.9375 8.75 10.9375 C 8.75 9.71875 8.75 8.503906 8.75 7.25 Z M 8.75 7.25 "/>
<path style=" stroke:none;fill-rule:nonzero;fill:rgb(76.862746%,45.09804%,23.921569%);fill-opacity:1;" d="M 11.625 13.0625 C 12.097656 13.0625 12.574219 13.0625 13.0625 13.0625 C 13.0625 13.308594 13.0625 13.558594 13.0625 13.8125 C 12.835938 13.8125 12.609375 13.8125 12.375 13.8125 C 12.375 14.058594 12.375 14.308594 12.375 14.5625 C 11.902344 14.5625 11.425781 14.5625 10.9375 14.5625 C 10.9375 14.316406 10.9375 14.066406 10.9375 13.8125 C 11.164062 13.8125 11.390625 13.8125 11.625 13.8125 C 11.625 13.566406 11.625 13.316406 11.625 13.0625 Z M 11.625 13.0625 "/>
<path style=" stroke:none;fill-rule:nonzero;fill:rgb(77.64706%,45.882353%,25.490198%);fill-opacity:1;" d="M 2.9375 13.0625 C 3.410156 13.0625 3.886719 13.0625 4.375 13.0625 C 4.375 13.308594 4.375 13.558594 4.375 13.8125 C 4.601562 13.8125 4.828125 13.8125 5.0625 13.8125 C 5.0625 14.058594 5.0625 14.308594 5.0625 14.5625 C 4.589844 14.5625 4.113281 14.5625 3.625 14.5625 C 3.625 14.316406 3.625 14.066406 3.625 13.8125 C 3.398438 13.8125 3.171875 13.8125 2.9375 13.8125 C 2.9375 13.566406 2.9375 13.316406 2.9375 13.0625 Z M 2.9375 13.0625 "/>
<path style=" stroke:none;fill-rule:nonzero;fill:rgb(99.607843%,99.607843%,97.254902%);fill-opacity:1;" d="M 2.1875 5.8125 C 2.660156 5.8125 3.136719 5.8125 3.625 5.8125 C 3.625 6.058594 3.625 6.308594 3.625 6.5625 C 3.398438 6.5625 3.171875 6.5625 2.9375 6.5625 C 2.9375 6.789062 2.9375 7.015625 2.9375 7.25 C 2.691406 7.25 2.441406 7.25 2.1875 7.25 C 2.1875 6.777344 2.1875 6.300781 2.1875 5.8125 Z M 2.1875 5.8125 "/>
<path style=" stroke:none;fill-rule:nonzero;fill:rgb(92.156863%,81.176472%,60.392159%);fill-opacity:1;" d="M 7.25 0.75 C 7.496094 0.75 7.746094 0.75 8 0.75 C 8 0.976562 8.003906 1.207031 8.003906 1.433594 C 8.003906 1.5 8.003906 1.5625 8.003906 1.628906 C 8.003906 1.722656 8.003906 1.722656 8.007812 1.816406 C 8.007812 1.902344 8.007812 1.902344 8.007812 1.992188 C 8 2.125 8 2.125 7.9375 2.1875 C 7.835938 2.191406 7.734375 2.195312 7.628906 2.195312 C 7.570312 2.195312 7.507812 2.191406 7.441406 2.191406 C 7.378906 2.191406 7.3125 2.191406 7.246094 2.191406 C 7.179688 2.191406 7.117188 2.191406 7.046875 2.191406 C 6.886719 2.191406 6.722656 2.1875 6.5625 2.1875 C 6.5625 1.941406 6.5625 1.691406 6.5625 1.4375 C 6.789062 1.4375 7.015625 1.4375 7.25 1.4375 C 7.25 1.210938 7.25 0.984375 7.25 0.75 Z M 7.25 0.75 "/>
<path style=" stroke:none;fill-rule:nonzero;fill:rgb(99.607843%,99.215686%,94.509804%);fill-opacity:1;" d="M 1.4375 7.25 C 1.683594 7.25 1.933594 7.25 2.1875 7.25 C 2.1875 7.746094 2.1875 8.238281 2.1875 8.75 C 1.941406 8.75 1.691406 8.75 1.4375 8.75 C 1.4375 8.253906 1.4375 7.761719 1.4375 7.25 Z M 1.4375 7.25 "/>
<path style=" stroke:none;fill-rule:nonzero;fill:rgb(78.431374%,45.09804%,25.490198%);fill-opacity:1;" d="M 8.75 13.8125 C 9.222656 13.8125 9.699219 13.8125 10.1875 13.8125 C 10.1875 14.058594 10.1875 14.308594 10.1875 14.5625 C 9.714844 14.5625 9.238281 14.5625 8.75 14.5625 C 8.75 14.316406 8.75 14.066406 8.75 13.8125 Z M 8.75 13.8125 "/>
<path style=" stroke:none;fill-rule:nonzero;fill:rgb(76.862746%,45.09804%,23.921569%);fill-opacity:1;" d="M 5.8125 13.8125 C 6.285156 13.8125 6.761719 13.8125 7.25 13.8125 C 7.25 14.058594 7.25 14.308594 7.25 14.5625 C 6.777344 14.5625 6.300781 14.5625 5.8125 14.5625 C 5.8125 14.316406 5.8125 14.066406 5.8125 13.8125 Z M 5.8125 13.8125 "/>
<path style=" stroke:none;fill-rule:nonzero;fill:rgb(94.901961%,89.803922%,72.156864%);fill-opacity:1;" d="M 1.4375 10.1875 C 1.683594 10.1875 1.933594 10.1875 2.1875 10.1875 C 2.1875 10.660156 2.1875 11.136719 2.1875 11.625 C 1.941406 11.625 1.691406 11.625 1.4375 11.625 C 1.4375 11.152344 1.4375 10.675781 1.4375 10.1875 Z M 1.4375 10.1875 "/>
<path style=" stroke:none;fill-rule:nonzero;fill:rgb(83.137256%,58.431375%,35.294119%);fill-opacity:1;" d="M 13.0625 8.75 C 13.308594 8.75 13.558594 8.75 13.8125 8.75 C 13.8125 9.222656 13.8125 9.699219 13.8125 10.1875 C 13.566406 10.1875 13.316406 10.1875 13.0625 10.1875 C 13.0625 9.714844 13.0625 9.238281 13.0625 8.75 Z M 13.0625 8.75 "/>
<path style=" stroke:none;fill-rule:nonzero;fill:rgb(99.607843%,99.215686%,98.039216%);fill-opacity:1;" d="M 5.8125 2.1875 C 6.058594 2.1875 6.308594 2.1875 6.5625 2.1875 C 6.5625 2.660156 6.5625 3.136719 6.5625 3.625 C 6.316406 3.625 6.066406 3.625 5.8125 3.625 C 5.8125 3.152344 5.8125 2.675781 5.8125 2.1875 Z M 5.8125 2.1875 "/>
<path style=" stroke:none;fill-rule:nonzero;fill:rgb(99.607843%,98.823529%,96.470588%);fill-opacity:1;" d="M 6.5625 5.0625 C 6.789062 5.0625 7.015625 5.0625 7.25 5.0625 C 7.25 5.558594 7.25 6.050781 7.25 6.5625 C 7.023438 6.5625 6.796875 6.5625 6.5625 6.5625 C 6.5625 6.066406 6.5625 5.574219 6.5625 5.0625 Z M 6.5625 5.0625 "/>
<path style=" stroke:none;fill-rule:nonzero;fill:rgb(97.647059%,74.117649%,41.568628%);fill-opacity:1;" d="M 4.3125 6.625 C 4.332031 6.832031 4.355469 7.039062 4.375 7.25 C 3.921875 7.25 3.46875 7.25 3 7.25 C 3 7.042969 3 6.835938 3 6.625 C 3.078125 6.625 3.078125 6.625 3.160156 6.628906 C 3.226562 6.628906 3.296875 6.628906 3.367188 6.628906 C 3.46875 6.628906 3.46875 6.628906 3.574219 6.632812 C 4.214844 6.609375 4.214844 6.609375 4.3125 6.625 Z M 4.3125 6.625 "/>
<path style=" stroke:none;fill-rule:nonzero;fill:rgb(99.215686%,71.372551%,46.27451%);fill-opacity:1;" d="M 7.25 7.25 C 7.269531 7.25 7.292969 7.25 7.3125 7.25 C 7.3125 8.488281 7.3125 9.726562 7.3125 11 C 7.148438 11.0625 6.984375 11.125 6.8125 11.1875 C 6.714844 11.371094 6.714844 11.371094 6.6875 11.5625 C 6.667969 11.605469 6.644531 11.644531 6.625 11.6875 C 5.429688 11.6875 4.234375 11.6875 3 11.6875 C 3 11.667969 3 11.644531 3 11.625 C 4.175781 11.625 5.351562 11.625 6.5625 11.625 C 6.5625 11.398438 6.5625 11.171875 6.5625 10.9375 C 6.789062 10.9375 7.015625 10.9375 7.25 10.9375 C 7.25 9.71875 7.25 8.503906 7.25 7.25 Z M 7.25 7.25 "/>
<path style=" stroke:none;fill-rule:nonzero;fill:rgb(99.215686%,99.607843%,87.058824%);fill-opacity:1;" d="M 2.1875 13.0625 C 2.433594 13.0625 2.683594 13.0625 2.9375 13.0625 C 2.9375 13.308594 2.9375 13.558594 2.9375 13.8125 C 2.691406 13.8125 2.441406 13.8125 2.1875 13.8125 C 2.1875 13.566406 2.1875 13.316406 2.1875 13.0625 Z M 2.1875 13.0625 "/>
<path style=" stroke:none;fill-rule:nonzero;fill:rgb(88.627452%,61.960787%,35.294119%);fill-opacity:1;" d="M 13.0625 13.0625 C 13.308594 13.0625 13.558594 13.0625 13.8125 13.0625 C 13.8125 13.308594 13.8125 13.558594 13.8125 13.8125 C 13.566406 13.8125 13.316406 13.8125 13.0625 13.8125 C 13.0625 13.566406 13.0625 13.316406 13.0625 13.0625 Z M 13.0625 13.0625 "/>
<path style=" stroke:none;fill-rule:nonzero;fill:rgb(57.647061%,14.509805%,14.509805%);fill-opacity:1;" d="M 3.625 7.25 C 3.871094 7.25 4.121094 7.25 4.375 7.25 C 4.375 7.496094 4.375 7.746094 4.375 8 C 4.128906 8 3.878906 8 3.625 8 C 3.625 7.753906 3.625 7.503906 3.625 7.25 Z M 3.625 7.25 "/>
<path style=" stroke:none;fill-rule:nonzero;fill:rgb(93.333334%,76.078433%,49.019608%);fill-opacity:1;" d="M 7.25 2.1875 C 7.457031 2.1875 7.664062 2.1875 7.875 2.1875 C 7.875 2.207031 7.875 2.230469 7.875 2.25 C 7.6875 2.25 7.503906 2.25 7.3125 2.25 C 7.3125 2.457031 7.3125 2.664062 7.3125 2.875 C 7.539062 2.917969 7.765625 2.957031 8 3 C 8 3.207031 8 3.414062 8 3.625 C 7.753906 3.625 7.503906 3.625 7.25 3.625 C 7.25 3.144531 7.25 2.667969 7.25 2.1875 Z M 7.25 2.1875 "/>
<path style=" stroke:none;fill-rule:nonzero;fill:rgb(91.37255%,65.882355%,38.039216%);fill-opacity:1;" d="M 5.0625 13 C 5.0625 13.269531 5.0625 13.535156 5.0625 13.8125 C 4.835938 13.8125 4.609375 13.8125 4.375 13.8125 C 4.375 13.566406 4.375 13.316406 4.375 13.0625 C 4.527344 13.046875 4.527344 13.046875 4.683594 13.03125 C 4.769531 13.023438 4.769531 13.023438 4.855469 13.015625 C 5 13 5 13 5.0625 13 Z M 5.0625 13 "/>
<path style=" stroke:none;fill-rule:nonzero;fill:rgb(99.607843%,99.607843%,96.470588%);fill-opacity:1;" d="M 7.25 14.5625 C 7.496094 14.5625 7.746094 14.5625 8 14.5625 C 8 14.789062 8 15.015625 8 15.25 C 7.753906 15.25 7.503906 15.25 7.25 15.25 C 7.25 15.023438 7.25 14.796875 7.25 14.5625 Z M 7.25 14.5625 "/>
<path style=" stroke:none;fill-rule:nonzero;fill:rgb(99.607843%,98.823529%,93.725491%);fill-opacity:1;" d="M 1.4375 10.9375 C 1.683594 10.9375 1.933594 10.9375 2.1875 10.9375 C 2.1875 11.164062 2.1875 11.390625 2.1875 11.625 C 1.941406 11.625 1.691406 11.625 1.4375 11.625 C 1.4375 11.398438 1.4375 11.171875 1.4375 10.9375 Z M 1.4375 10.9375 "/>
<path style=" stroke:none;fill-rule:nonzero;fill:rgb(84.313726%,51.372552%,32.549021%);fill-opacity:1;" d="M 9.4375 10.9375 C 9.683594 10.9375 9.933594 10.9375 10.1875 10.9375 C 10.1875 11.164062 10.1875 11.390625 10.1875 11.625 C 9.941406 11.625 9.691406 11.625 9.4375 11.625 C 9.4375 11.398438 9.4375 11.171875 9.4375 10.9375 Z M 9.4375 10.9375 "/>
<path style=" stroke:none;fill-rule:nonzero;fill:rgb(73.725492%,32.156864%,21.960784%);fill-opacity:1;" d="M 5.8125 10.9375 C 6.058594 10.9375 6.308594 10.9375 6.5625 10.9375 C 6.5625 11.164062 6.5625 11.390625 6.5625 11.625 C 6.316406 11.625 6.066406 11.625 5.8125 11.625 C 5.8125 11.398438 5.8125 11.171875 5.8125 10.9375 Z M 5.8125 10.9375 "/>
<path style=" stroke:none;fill-rule:nonzero;fill:rgb(99.215686%,98.431373%,51.372552%);fill-opacity:1;" d="M 10.1875 6.5625 C 10.433594 6.5625 10.683594 6.5625 10.9375 6.5625 C 10.9375 6.789062 10.9375 7.015625 10.9375 7.25 C 10.691406 7.25 10.441406 7.25 10.1875 7.25 C 10.1875 7.023438 10.1875 6.796875 10.1875 6.5625 Z M 10.1875 6.5625 "/>
<path style=" stroke:none;fill-rule:nonzero;fill:rgb(99.215686%,98.823529%,91.37255%);fill-opacity:1;" d="M 12.375 5.8125 C 12.601562 5.8125 12.828125 5.8125 13.0625 5.8125 C 13.0625 6.058594 13.0625 6.308594 13.0625 6.5625 C 12.835938 6.5625 12.609375 6.5625 12.375 6.5625 C 12.375 6.316406 12.375 6.066406 12.375 5.8125 Z M 12.375 5.8125 "/>
<path style=" stroke:none;fill-rule:nonzero;fill:rgb(99.215686%,99.215686%,97.647059%);fill-opacity:1;" d="M 8.75 5.8125 C 8.976562 5.8125 9.203125 5.8125 9.4375 5.8125 C 9.4375 6.058594 9.4375 6.308594 9.4375 6.5625 C 9.210938 6.5625 8.984375 6.5625 8.75 6.5625 C 8.75 6.316406 8.75 6.066406 8.75 5.8125 Z M 8.75 5.8125 "/>
<path style=" stroke:none;fill-rule:nonzero;fill:rgb(99.607843%,99.607843%,96.470588%);fill-opacity:1;" d="M 10.9375 5.0625 C 11.164062 5.0625 11.390625 5.0625 11.625 5.0625 C 11.625 5.308594 11.625 5.558594 11.625 5.8125 C 11.398438 5.8125 11.171875 5.8125 10.9375 5.8125 C 10.9375 5.566406 10.9375 5.316406 10.9375 5.0625 Z M 10.9375 5.0625 "/>
<path style=" stroke:none;fill-rule:nonzero;fill:rgb(100%,99.607843%,96.862745%);fill-opacity:1;" d="M 4.375 5.0625 C 4.601562 5.0625 4.828125 5.0625 5.0625 5.0625 C 5.0625 5.308594 5.0625 5.558594 5.0625 5.8125 C 4.835938 5.8125 4.609375 5.8125 4.375 5.8125 C 4.375 5.566406 4.375 5.316406 4.375 5.0625 Z M 4.375 5.0625 "/>
<path style=" stroke:none;fill-rule:nonzero;fill:rgb(99.607843%,99.215686%,96.078432%);fill-opacity:1;" d="M 8.75 2.1875 C 8.976562 2.1875 9.203125 2.1875 9.4375 2.1875 C 9.4375 2.433594 9.4375 2.683594 9.4375 2.9375 C 9.210938 2.9375 8.984375 2.9375 8.75 2.9375 C 8.75 2.691406 8.75 2.441406 8.75 2.1875 Z M 8.75 2.1875 "/>
<path style=" stroke:none;fill-rule:nonzero;fill:rgb(99.607843%,99.607843%,99.215686%);fill-opacity:1;" d="M 6.5625 1.4375 C 6.789062 1.4375 7.015625 1.4375 7.25 1.4375 C 7.25 1.683594 7.25 1.933594 7.25 2.1875 C 7.023438 2.1875 6.796875 2.1875 6.5625 2.1875 C 6.5625 1.941406 6.5625 1.691406 6.5625 1.4375 Z M 6.5625 1.4375 "/>
<path style=" stroke:none;fill-rule:nonzero;fill:rgb(99.607843%,99.607843%,98.823529%);fill-opacity:1;" d="M 7.25 0.75 C 7.496094 0.75 7.746094 0.75 8 0.75 C 8 0.976562 8 1.203125 8 1.4375 C 7.753906 1.4375 7.503906 1.4375 7.25 1.4375 C 7.25 1.210938 7.25 0.984375 7.25 0.75 Z M 7.25 0.75 "/>
<path style=" stroke:none;fill-rule:nonzero;fill:rgb(65.882355%,21.960784%,16.862746%);fill-opacity:1;" d="M 4.375 7.25 C 5.324219 7.25 6.273438 7.25 7.25 7.25 C 7.25 8.46875 7.25 9.683594 7.25 10.9375 C 7.003906 10.9375 6.753906 10.9375 6.5 10.9375 C 6.5 10.894531 6.5 10.855469 6.5 10.8125 C 6.726562 10.792969 6.953125 10.769531 7.1875 10.75 C 7.1875 9.617188 7.1875 8.480469 7.1875 7.3125 C 6.257812 7.3125 5.332031 7.3125 4.375 7.3125 C 4.375 7.292969 4.375 7.269531 4.375 7.25 Z M 4.375 7.25 "/>
<path style=" stroke:none;fill-rule:nonzero;fill:rgb(98.039216%,50.196081%,29.803923%);fill-opacity:1;" d="M 13.0625 8.75 C 13.082031 8.75 13.105469 8.75 13.125 8.75 C 13.144531 8.976562 13.167969 9.203125 13.1875 9.4375 C 13.375 9.457031 13.558594 9.480469 13.75 9.5 C 13.757812 9.984375 13.757812 9.984375 13.6875 10.125 C 13.5625 10.121094 13.433594 10.121094 13.308594 10.117188 C 13.183594 10.117188 13.183594 10.117188 13.0625 10.1875 C 13.0625 9.714844 13.0625 9.238281 13.0625 8.75 Z M 13.0625 8.75 "/>
<path style=" stroke:none;fill-rule:nonzero;fill:rgb(99.607843%,97.254902%,84.705883%);fill-opacity:1;" d="M 7.1875 5.0625 C 7.207031 5.0625 7.230469 5.0625 7.25 5.0625 C 7.25 5.558594 7.25 6.050781 7.25 6.5625 C 7.023438 6.5625 6.796875 6.5625 6.5625 6.5625 C 6.5625 6.292969 6.5625 6.027344 6.5625 5.75 C 6.605469 5.75 6.644531 5.75 6.6875 5.75 C 6.753906 6 6.738281 6.1875 6.6875 6.4375 C 6.851562 6.4375 7.015625 6.4375 7.1875 6.4375 C 7.1875 5.984375 7.1875 5.53125 7.1875 5.0625 Z M 7.1875 5.0625 "/>
<path style=" stroke:none;fill-rule:nonzero;fill:rgb(99.607843%,98.431373%,86.274511%);fill-opacity:1;" d="M 3.5625 5.8125 C 3.582031 5.8125 3.605469 5.8125 3.625 5.8125 C 3.625 6.058594 3.625 6.308594 3.625 6.5625 C 3.398438 6.5625 3.171875 6.5625 2.9375 6.5625 C 2.9375 6.789062 2.9375 7.015625 2.9375 7.25 C 2.691406 7.25 2.441406 7.25 2.1875 7.25 C 2.1875 7.230469 2.1875 7.207031 2.1875 7.1875 C 2.394531 7.1875 2.601562 7.1875 2.8125 7.1875 C 2.8125 7.136719 2.8125 7.089844 2.808594 7.039062 C 2.808594 6.976562 2.808594 6.914062 2.808594 6.847656 C 2.808594 6.785156 2.808594 6.722656 2.804688 6.65625 C 2.8125 6.5 2.8125 6.5 2.875 6.4375 C 2.992188 6.433594 3.105469 6.433594 3.222656 6.433594 C 3.285156 6.433594 3.347656 6.433594 3.414062 6.433594 C 3.488281 6.4375 3.488281 6.4375 3.5625 6.4375 C 3.5625 6.230469 3.5625 6.023438 3.5625 5.8125 Z M 3.5625 5.8125 "/>
<path style=" stroke:none;fill-rule:nonzero;fill:rgb(99.607843%,98.431373%,87.450981%);fill-opacity:1;" d="M 8.75 5.8125 C 8.769531 5.8125 8.792969 5.8125 8.8125 5.8125 C 8.8125 6.019531 8.8125 6.226562 8.8125 6.4375 C 8.976562 6.4375 9.140625 6.4375 9.3125 6.4375 C 9.292969 6.25 9.269531 6.066406 9.25 5.875 C 9.3125 5.855469 9.375 5.832031 9.4375 5.8125 C 9.4375 6.058594 9.4375 6.308594 9.4375 6.5625 C 9.210938 6.5625 8.984375 6.5625 8.75 6.5625 C 8.75 6.316406 8.75 6.066406 8.75 5.8125 Z M 8.75 5.8125 "/>
<path style=" stroke:none;fill-rule:nonzero;fill:rgb(100%,96.470588%,76.862746%);fill-opacity:1;" d="M 2.1875 13.0625 C 2.433594 13.0625 2.683594 13.0625 2.9375 13.0625 C 2.9375 13.308594 2.9375 13.558594 2.9375 13.8125 C 2.917969 13.8125 2.894531 13.8125 2.875 13.8125 C 2.855469 13.605469 2.832031 13.398438 2.8125 13.1875 C 2.675781 13.199219 2.675781 13.199219 2.535156 13.210938 C 2.484375 13.214844 2.433594 13.21875 2.378906 13.222656 C 2.316406 13.238281 2.316406 13.238281 2.25 13.25 C 2.230469 13.292969 2.207031 13.332031 2.1875 13.375 C 2.1875 13.273438 2.1875 13.167969 2.1875 13.0625 Z M 2.1875 13.0625 "/>
<path style=" stroke:none;fill-rule:nonzero;fill:rgb(98.431373%,67.058825%,49.019608%);fill-opacity:1;" d="M 6.5625 10.9375 C 6.789062 10.9375 7.015625 10.9375 7.25 10.9375 C 7.25 10.980469 7.25 11.019531 7.25 11.0625 C 7.183594 11.078125 7.113281 11.089844 7.042969 11.105469 C 6.804688 11.164062 6.804688 11.164062 6.695312 11.351562 C 6.671875 11.402344 6.648438 11.449219 6.625 11.5 C 6.605469 11.5 6.582031 11.5 6.5625 11.5 C 6.5625 11.3125 6.5625 11.128906 6.5625 10.9375 Z M 6.5625 10.9375 "/>
<path style=" stroke:none;fill-rule:nonzero;fill:rgb(98.823529%,88.235295%,66.666669%);fill-opacity:1;" d="M 1.4375 10.1875 C 1.683594 10.1875 1.933594 10.1875 2.1875 10.1875 C 2.1875 10.433594 2.1875 10.683594 2.1875 10.9375 C 2.167969 10.9375 2.144531 10.9375 2.125 10.9375 C 2.109375 10.8125 2.097656 10.6875 2.082031 10.566406 C 2.0625 10.425781 2.0625 10.425781 2 10.25 C 1.917969 10.257812 1.835938 10.265625 1.753906 10.273438 C 1.707031 10.277344 1.664062 10.28125 1.617188 10.285156 C 1.558594 10.300781 1.558594 10.300781 1.5 10.3125 C 1.480469 10.355469 1.457031 10.394531 1.4375 10.4375 C 1.4375 10.355469 1.4375 10.273438 1.4375 10.1875 Z M 1.4375 10.1875 "/>
<path style=" stroke:none;fill-rule:nonzero;fill:rgb(100%,93.333334%,54.509807%);fill-opacity:1;" d="M 10.1875 6.5625 C 10.433594 6.5625 10.683594 6.5625 10.9375 6.5625 C 10.9375 6.582031 10.9375 6.605469 10.9375 6.625 C 10.660156 6.65625 10.660156 6.65625 10.375 6.6875 C 10.332031 6.8125 10.292969 6.933594 10.25 7.0625 C 10.230469 7.0625 10.207031 7.0625 10.1875 7.0625 C 10.1875 6.898438 10.1875 6.734375 10.1875 6.5625 Z M 10.1875 6.5625 "/>
<path style=" stroke:none;fill-rule:nonzero;fill:rgb(95.294118%,79.215688%,53.725493%);fill-opacity:1;" d="M 7.9375 1.5625 C 7.957031 1.5625 7.980469 1.5625 8 1.5625 C 8 1.65625 8.003906 1.746094 8.003906 1.839844 C 8.003906 1.890625 8.003906 1.941406 8.007812 1.996094 C 8 2.125 8 2.125 7.9375 2.1875 C 7.792969 2.191406 7.644531 2.191406 7.5 2.1875 C 7.6875 2.0625 7.6875 2.0625 7.875 2 C 7.894531 1.855469 7.917969 1.710938 7.9375 1.5625 Z M 7.9375 1.5625 "/>
</g>
</svg>
